<svg xmlns="http://www.w3.org/2000/svg" viewBox="-150 -108 300 215" width="300" height="215">
  <path d="M-114.9,-0.3C-114.7,-3.0 -114.4,-9.3 -113.5,-13.7C-112.6,-18.1 -111.5,-22.5 -109.7,-26.6C-107.9,-30.7 -105.5,-34.6 -102.8,-38.2C-100.2,-41.8 -96.9,-45.1 -93.8,-48.2C-90.6,-51.2 -87.3,-54.0 -83.9,-56.6C-80.6,-59.2 -77.2,-61.6 -73.7,-63.8C-70.2,-65.9 -66.7,-67.9 -63.2,-69.6C-59.7,-71.4 -56.2,-73.1 -52.6,-74.4C-49.0,-75.7 -45.4,-76.9 -41.7,-77.6C-38.0,-78.3 -34.1,-78.6 -30.4,-78.4C-26.7,-78.3 -22.9,-77.6 -19.3,-76.9C-15.8,-76.2 -12.4,-75.2 -9.1,-74.4C-5.9,-73.6 -2.8,-72.7 0.2,-72.2C3.3,-71.6 6.2,-71.4 9.2,-71.1C12.2,-70.8 15.3,-70.8 18.4,-70.4C21.4,-69.9 24.4,-69.2 27.5,-68.5C30.6,-67.8 33.6,-66.9 36.8,-66.1C40.0,-65.2 43.1,-64.3 46.5,-63.3C50.0,-62.4 53.6,-61.5 57.3,-60.4C61.1,-59.3 65.0,-58.1 68.9,-56.5C72.8,-54.9 77.1,-53.2 80.8,-51.0C84.4,-48.7 87.8,-45.8 90.9,-42.8C94.1,-39.8 97.2,-36.4 99.8,-32.8C102.4,-29.2 104.4,-25.3 106.5,-21.2C108.5,-17.1 110.5,-12.9 111.9,-8.5C113.3,-4.1 114.9,0.7 115.0,5.2C115.1,9.8 114.3,14.6 112.6,18.9C110.9,23.2 107.8,27.3 104.7,31.0C101.7,34.7 98.0,38.0 94.4,41.0C90.8,44.0 86.7,46.5 83.0,48.9C79.3,51.3 75.6,53.4 72.0,55.4C68.5,57.5 64.9,59.2 61.5,61.0C58.1,62.7 54.9,64.4 51.6,65.8C48.3,67.3 44.9,68.5 41.6,69.6C38.3,70.8 35.0,71.8 31.8,72.7C28.5,73.7 25.2,74.4 22.0,75.1C18.7,75.8 15.5,76.6 12.2,77.0C9.0,77.4 5.7,77.5 2.4,77.8C-0.9,78.0 -4.3,78.5 -7.6,78.4C-10.9,78.4 -14.3,78.0 -17.5,77.5C-20.8,77.0 -24.0,76.1 -27.3,75.3C-30.6,74.5 -34.0,73.8 -37.3,72.9C-40.6,71.9 -43.9,70.8 -47.2,69.5C-50.5,68.3 -53.7,66.8 -57.0,65.2C-60.3,63.6 -63.6,61.9 -67.0,60.1C-70.4,58.3 -73.8,56.3 -77.3,54.2C-80.9,52.1 -84.6,49.8 -88.2,47.3C-91.8,44.7 -95.9,42.1 -99.2,38.9C-102.4,35.7 -105.6,32.1 -107.9,28.2C-110.3,24.4 -112.1,20.1 -113.2,15.7C-114.4,11.4 -114.6,5.0 -114.9,2.4C-115.1,-0.3 -115.2,2.4 -114.9,-0.3Z" fill="#DDA7CF"/>
  <path d="M-48.7,-17.3C-47.4,-17.3 -47.2,-17.7 -46.7,-17.9C-46.3,-18.2 -46.2,-18.3 -46.0,-18.5C-45.8,-18.7 -45.6,-18.9 -45.4,-19.1C-45.2,-19.3 -45.0,-19.5 -44.8,-19.7C-44.6,-19.9 -44.4,-20.1 -44.2,-20.3C-43.9,-20.5 -43.7,-20.7 -43.4,-20.9C-43.1,-21.2 -42.8,-21.5 -42.5,-21.7C-42.2,-22.0 -42.0,-22.2 -41.7,-22.5C-41.5,-22.7 -41.2,-22.9 -40.9,-23.2C-40.6,-23.4 -40.2,-23.7 -39.9,-23.9C-39.6,-24.2 -39.3,-24.4 -39.0,-24.7C-38.7,-24.9 -38.4,-25.1 -38.0,-25.3C-37.7,-25.5 -37.3,-25.7 -37.0,-25.9C-36.6,-26.1 -36.3,-26.3 -36.0,-26.4C-35.7,-26.5 -35.3,-26.7 -35.0,-26.8C-34.7,-26.9 -34.3,-27.0 -33.9,-27.1C-33.6,-27.1 -33.3,-27.2 -33.0,-27.2C-32.6,-27.2 -32.3,-27.2 -31.9,-27.2C-31.6,-27.1 -31.3,-27.1 -31.0,-27.0C-30.7,-27.0 -30.4,-26.9 -30.1,-26.8C-29.8,-26.6 -29.5,-26.5 -29.2,-26.4C-28.9,-26.2 -28.6,-26.1 -28.4,-25.9C-28.1,-25.7 -27.9,-25.5 -27.6,-25.3C-27.4,-25.1 -27.1,-24.8 -26.9,-24.6C-26.7,-24.3 -26.5,-24.1 -26.3,-23.9C-26.1,-23.7 -25.9,-23.4 -25.7,-23.1C-25.5,-22.9 -25.3,-22.5 -25.1,-22.3C-24.9,-22.0 -24.8,-21.7 -24.6,-21.5C-24.5,-21.2 -24.3,-21.0 -24.2,-20.8C-24.0,-20.5 -23.9,-20.2 -23.7,-19.9C-23.5,-19.7 -23.4,-19.4 -23.2,-19.1C-23.0,-18.8 -23.0,-18.6 -22.6,-18.3C-22.2,-18.0 -21.1,-17.8 -20.7,-17.5C-20.3,-17.1 -20.5,-16.7 -20.3,-16.4C-20.1,-16.1 -19.8,-15.8 -19.5,-15.6C-19.2,-15.4 -18.9,-15.2 -18.5,-15.1C-18.1,-15.1 -17.7,-15.0 -17.4,-15.1C-17.0,-15.2 -16.6,-15.3 -16.3,-15.5C-16.0,-15.7 -15.7,-16.0 -15.5,-16.3C-15.3,-16.6 -15.1,-16.9 -15.1,-17.3C-15.0,-17.6 -15.3,-17.9 -15.0,-18.4C-14.8,-18.9 -13.8,-19.6 -13.6,-20.2C-13.3,-20.8 -13.6,-21.4 -13.6,-22.0C-13.7,-22.5 -13.8,-23.1 -13.9,-23.6C-14.1,-24.2 -14.3,-24.7 -14.5,-25.2C-14.7,-25.8 -15.0,-26.4 -15.3,-26.9C-15.6,-27.4 -15.9,-27.9 -16.3,-28.4C-16.6,-28.9 -16.9,-29.4 -17.4,-29.8C-17.8,-30.3 -18.2,-30.8 -18.7,-31.3C-19.2,-31.7 -19.7,-32.2 -20.3,-32.6C-20.8,-33.0 -21.3,-33.3 -21.9,-33.7C-22.4,-34.0 -23.0,-34.4 -23.7,-34.6C-24.3,-34.9 -25.0,-35.2 -25.6,-35.4C-26.3,-35.6 -26.9,-35.8 -27.5,-35.9C-28.2,-36.1 -28.9,-36.2 -29.6,-36.3C-30.3,-36.4 -30.9,-36.4 -31.6,-36.4C-32.3,-36.5 -32.9,-36.4 -33.6,-36.4C-34.2,-36.4 -34.9,-36.3 -35.5,-36.2C-36.2,-36.1 -36.8,-35.9 -37.4,-35.8C-38.0,-35.7 -38.6,-35.5 -39.2,-35.3C-39.8,-35.1 -40.4,-34.9 -40.9,-34.7C-41.5,-34.5 -41.9,-34.3 -42.5,-34.1C-43.0,-33.9 -43.5,-33.6 -44.0,-33.4C-44.5,-33.1 -45.0,-32.9 -45.5,-32.6C-45.9,-32.4 -46.3,-32.1 -46.8,-31.9C-47.2,-31.6 -47.7,-31.4 -48.1,-31.1C-48.6,-30.8 -49.0,-30.4 -49.4,-30.1C-49.8,-29.8 -50.2,-29.5 -50.6,-29.2C-51.0,-28.8 -51.4,-28.4 -51.9,-28.0C-52.3,-27.6 -52.7,-27.1 -53.1,-26.6C-53.4,-26.0 -53.8,-25.5 -54.1,-24.9C-54.4,-24.3 -54.7,-23.7 -54.9,-23.1C-55.1,-22.4 -55.5,-21.7 -55.4,-21.0C-55.3,-20.3 -55.2,-19.6 -54.2,-18.8C-53.2,-18.0 -49.9,-16.8 -49.2,-16.3C-48.5,-15.8 -49.7,-15.7 -50.0,-15.6C-50.3,-15.4 -50.7,-15.3 -51.1,-15.2C-51.4,-15.2 -51.8,-15.2 -52.2,-15.3C-52.5,-15.4 -52.9,-15.6 -53.2,-15.8C-53.5,-16.0 -53.7,-16.3 -53.9,-16.6C-54.1,-16.9 -55.1,-17.6 -54.3,-17.7C-53.4,-17.8 -49.9,-17.3 -48.7,-17.3Z" fill="#A02C83"/>
  <path d="M43.9,-22.0C43.9,-21.0 43.9,-19.9 43.8,-18.9C43.6,-17.8 43.4,-16.8 43.0,-15.8C42.7,-14.9 42.1,-14.1 41.5,-13.3C41.0,-12.6 40.4,-11.9 39.7,-11.3C39.0,-10.7 38.3,-10.0 37.6,-9.7C36.8,-9.3 36.0,-9.2 35.2,-9.2C34.4,-9.1 33.6,-9.3 32.8,-9.4C32.0,-9.5 31.2,-9.6 30.5,-10.0C29.7,-10.3 29.0,-10.7 28.3,-11.3C27.6,-11.8 27.0,-12.5 26.4,-13.3C25.8,-14.0 25.2,-14.8 24.8,-15.7C24.4,-16.7 24.1,-17.7 23.9,-18.8C23.7,-19.8 23.5,-20.9 23.6,-22.0C23.6,-23.1 23.8,-24.2 24.1,-25.2C24.4,-26.2 24.8,-27.1 25.2,-28.0C25.6,-28.9 26.1,-29.7 26.7,-30.5C27.2,-31.2 27.9,-31.8 28.5,-32.3C29.2,-32.8 29.9,-33.3 30.6,-33.6C31.3,-33.9 32.1,-34.1 32.9,-34.2C33.6,-34.3 34.4,-34.3 35.1,-34.2C35.9,-34.0 36.6,-33.7 37.3,-33.3C38.0,-33.0 38.7,-32.6 39.3,-32.1C40.0,-31.5 40.5,-30.8 41.0,-30.1C41.6,-29.4 42.1,-28.6 42.5,-27.8C42.9,-27.0 43.3,-26.0 43.5,-25.1C43.8,-24.1 43.8,-23.0 43.9,-22.0Z" fill="#A02C83"/>
  <path d="M17.7,-42.3C18.6,-42.2 19.0,-42.5 19.5,-42.7C19.9,-42.9 20.0,-43.2 20.3,-43.4C20.6,-43.6 20.9,-43.9 21.1,-44.1C21.4,-44.3 21.7,-44.5 21.9,-44.7C22.2,-44.9 22.5,-45.1 22.8,-45.3C23.1,-45.5 23.4,-45.7 23.7,-45.9C24.0,-46.0 24.3,-46.2 24.6,-46.4C24.9,-46.5 25.2,-46.7 25.6,-46.8C25.9,-46.9 26.2,-47.1 26.6,-47.2C26.9,-47.3 27.3,-47.4 27.6,-47.6C27.9,-47.7 28.3,-47.8 28.6,-47.8C28.9,-47.9 29.3,-48.0 29.7,-48.1C30.0,-48.1 30.4,-48.2 30.8,-48.3C31.1,-48.3 31.4,-48.4 31.8,-48.4C32.2,-48.4 32.6,-48.4 32.9,-48.5C33.3,-48.5 33.7,-48.5 34.0,-48.5C34.4,-48.5 34.7,-48.5 35.1,-48.5C35.4,-48.4 35.8,-48.4 36.2,-48.4C36.6,-48.3 36.9,-48.3 37.3,-48.2C37.6,-48.2 37.9,-48.1 38.3,-48.0C38.7,-48.0 39.1,-47.9 39.4,-47.8C39.8,-47.7 40.1,-47.6 40.4,-47.5C40.7,-47.4 41.0,-47.3 41.4,-47.2C41.7,-47.0 42.1,-46.9 42.4,-46.7C42.8,-46.6 43.1,-46.5 43.4,-46.3C43.7,-46.1 43.9,-46.0 44.2,-45.8C44.5,-45.6 44.9,-45.4 45.1,-45.2C45.4,-45.0 45.7,-44.8 46.0,-44.6C46.3,-44.4 46.5,-44.2 46.8,-44.0C47.0,-43.8 47.3,-43.6 47.5,-43.3C47.8,-43.1 48.0,-42.8 48.2,-42.6C48.5,-42.3 48.6,-42.0 49.0,-41.8C49.4,-41.6 50.3,-41.4 50.7,-41.2C51.0,-41.0 50.9,-40.8 51.1,-40.6C51.2,-40.4 51.5,-40.3 51.7,-40.2C51.9,-40.1 52.1,-40.1 52.4,-40.1C52.6,-40.1 52.8,-40.1 53.0,-40.2C53.3,-40.3 53.5,-40.4 53.6,-40.6C53.8,-40.8 53.9,-41.0 54.0,-41.2C54.1,-41.4 54.2,-41.7 54.2,-41.9C54.2,-42.1 53.9,-42.1 54.0,-42.6C54.1,-43.0 54.6,-43.9 54.7,-44.5C54.7,-45.0 54.4,-45.5 54.2,-46.1C54.0,-46.6 53.7,-47.1 53.4,-47.5C53.2,-48.0 52.9,-48.5 52.5,-49.0C52.2,-49.4 51.8,-49.9 51.4,-50.3C51.1,-50.7 50.7,-51.1 50.3,-51.5C49.9,-51.8 49.5,-52.2 49.1,-52.5C48.6,-52.9 48.2,-53.2 47.7,-53.5C47.3,-53.8 46.8,-54.1 46.3,-54.4C45.8,-54.6 45.4,-54.9 44.9,-55.1C44.4,-55.3 43.9,-55.6 43.4,-55.8C42.9,-56.0 42.3,-56.1 41.8,-56.3C41.3,-56.4 40.9,-56.6 40.4,-56.7C39.8,-56.8 39.3,-57.0 38.8,-57.1C38.2,-57.2 37.7,-57.2 37.2,-57.3C36.6,-57.4 36.1,-57.4 35.6,-57.4C35.1,-57.5 34.5,-57.5 34.0,-57.5C33.5,-57.5 32.9,-57.5 32.4,-57.4C31.9,-57.4 31.4,-57.4 30.8,-57.3C30.3,-57.2 29.8,-57.1 29.2,-57.0C28.7,-56.9 28.2,-56.8 27.7,-56.7C27.2,-56.6 26.7,-56.4 26.2,-56.3C25.6,-56.1 25.1,-55.9 24.6,-55.7C24.1,-55.5 23.6,-55.3 23.2,-55.1C22.7,-54.8 22.2,-54.6 21.7,-54.3C21.2,-54.0 20.8,-53.7 20.3,-53.4C19.9,-53.1 19.4,-52.8 19.0,-52.5C18.6,-52.1 18.2,-51.8 17.8,-51.4C17.4,-51.0 17.0,-50.6 16.6,-50.2C16.2,-49.8 15.9,-49.3 15.6,-48.8C15.3,-48.4 15.0,-47.9 14.7,-47.4C14.5,-47.0 14.1,-46.5 14.1,-45.9C14.1,-45.3 14.0,-44.7 14.6,-44.0C15.1,-43.3 16.9,-42.2 17.3,-41.7C17.6,-41.3 16.9,-41.5 16.7,-41.4C16.4,-41.3 16.2,-41.3 16.0,-41.3C15.7,-41.4 15.5,-41.4 15.3,-41.5C15.1,-41.7 14.9,-41.8 14.7,-42.0C14.6,-42.2 14.5,-42.4 14.4,-42.6C14.4,-42.8 13.8,-43.4 14.4,-43.3C14.9,-43.3 16.9,-42.4 17.7,-42.3Z" fill="#A02C83"/>
  <path d="M-44.5,37.0C-44.0,38.2 -42.7,38.6 -41.7,39.1C-40.8,39.6 -39.8,39.7 -38.8,40.0C-37.8,40.3 -36.9,40.6 -35.9,40.8C-35.0,41.1 -34.0,41.4 -33.1,41.7C-32.2,42.0 -31.3,42.3 -30.4,42.6C-29.5,42.9 -28.6,43.3 -27.7,43.6C-26.8,43.9 -25.9,44.3 -25.1,44.7C-24.2,45.0 -23.3,45.4 -22.5,45.8C-21.6,46.2 -20.7,46.6 -19.9,47.0C-19.0,47.4 -18.1,47.9 -17.2,48.3C-16.3,48.8 -15.7,49.1 -14.5,49.7C-13.4,50.2 -12.0,51.0 -10.5,51.4C-9.0,51.8 -7.0,51.8 -5.6,51.9C-4.1,51.9 -2.9,51.7 -1.8,51.6C-0.6,51.5 0.4,51.4 1.5,51.3C2.6,51.1 3.7,51.0 4.8,50.8C5.8,50.6 6.9,50.4 8.0,50.1C9.1,49.9 10.2,49.6 11.2,49.3C12.3,49.1 13.3,48.7 14.4,48.4C15.4,48.1 16.4,47.7 17.4,47.4C18.5,47.0 19.4,46.6 20.4,46.3C21.4,45.9 22.3,45.5 23.3,45.1C24.2,44.7 25.2,44.4 26.1,44.0C27.0,43.6 27.6,43.4 28.8,42.9C29.9,42.4 31.9,42.0 33.1,41.1C34.3,40.2 35.4,38.5 36.2,37.5C36.9,36.5 37.2,35.9 37.8,35.1C38.3,34.3 38.9,33.6 39.5,32.8C40.0,32.0 40.6,31.3 41.2,30.5C41.8,29.8 42.5,29.0 43.1,28.3C43.7,27.5 44.4,26.7 45.0,26.0C45.6,25.2 46.4,24.5 46.9,23.6C47.4,22.6 47.7,20.9 48.0,20.2C48.3,19.5 48.5,19.7 48.7,19.4C48.8,19.1 48.9,18.7 49.0,18.3C49.0,18.0 48.9,17.6 48.8,17.3C48.7,16.9 48.5,16.6 48.3,16.3C48.0,16.1 47.7,15.9 47.4,15.7C47.1,15.5 46.7,15.4 46.4,15.4C46.0,15.4 45.6,15.5 45.3,15.6C45.0,15.7 45.1,15.9 44.4,16.1C43.6,16.3 41.9,16.4 40.9,16.8C39.9,17.2 39.1,17.9 38.3,18.5C37.4,19.1 36.5,19.7 35.7,20.4C34.8,21.0 34.0,21.6 33.1,22.3C32.3,23.0 31.4,23.7 30.6,24.4C29.8,25.1 29.0,25.8 28.2,26.6C27.4,27.3 26.4,28.3 25.9,28.8C25.5,29.2 25.7,29.3 25.5,29.3C25.3,29.4 25.2,28.9 24.5,29.0C23.8,29.1 22.4,29.5 21.4,29.8C20.4,30.0 19.4,30.3 18.4,30.6C17.4,30.9 16.4,31.1 15.5,31.4C14.5,31.7 13.6,31.9 12.6,32.2C11.7,32.5 10.8,32.7 9.9,33.0C8.9,33.2 8.0,33.4 7.1,33.7C6.2,33.9 5.3,34.1 4.5,34.3C3.6,34.5 2.7,34.7 1.8,34.9C0.9,35.1 -0.0,35.3 -1.0,35.4C-1.9,35.6 -2.9,35.8 -3.7,35.9C-4.6,36.1 -5.5,36.2 -6.1,36.4C-6.7,36.5 -6.8,36.6 -7.3,36.6C-7.7,36.5 -8.2,36.2 -9.0,36.0C-9.8,35.7 -10.9,35.3 -12.0,35.0C-13.0,34.7 -14.0,34.4 -15.0,34.1C-16.0,33.8 -17.1,33.5 -18.1,33.2C-19.2,33.0 -20.2,32.7 -21.3,32.5C-22.4,32.3 -23.4,32.0 -24.5,31.9C-25.6,31.7 -26.7,31.5 -27.7,31.3C-28.8,31.2 -29.9,31.1 -30.9,31.0C-32.0,30.9 -33.1,30.8 -34.1,30.7C-35.2,30.6 -36.2,30.6 -37.3,30.5C-38.3,30.5 -39.3,30.3 -40.4,30.5C-41.5,30.7 -42.8,30.7 -43.7,31.7C-44.5,32.7 -45.1,35.9 -45.5,36.6C-45.9,37.3 -46.1,36.2 -46.3,35.9C-46.5,35.6 -46.6,35.3 -46.7,35.0C-46.8,34.6 -46.8,34.3 -46.7,33.9C-46.7,33.6 -46.6,33.2 -46.4,32.9C-46.2,32.6 -45.9,32.4 -45.7,32.2C-45.4,32.0 -44.9,30.9 -44.7,31.7C-44.5,32.5 -45.0,35.7 -44.5,37.0Z" fill="#A02C83"/>
</svg>